<svg width="44" height="44" viewBox="0 0 44 44" fill="none" xmlns="http://www.w3.org/2000/svg">
<path d="M14.2999 22C14.2999 18.5798 16.5434 15.6761 19.635 14.6753L14.8428 7.17969C11.9388 8.5667 9.40742 10.8108 7.67665 13.8086C5.96783 16.7684 5.2802 20.0376 5.50458 23.2082L14.4732 23.6143C14.3615 23.0932 14.2999 22.5539 14.2999 22Z" fill="#171A1F"/>
<path d="M36.3231 13.8086C34.5923 10.8108 32.0609 8.5667 29.157 7.17969L24.3647 14.6753C27.4564 15.6761 29.6999 18.5798 29.6999 22C29.6999 22.5539 29.6382 23.0932 29.5265 23.6143L38.4952 23.2082C38.7195 20.0376 38.0319 16.7684 36.3231 13.8086Z" fill="#171A1F"/>
<path d="M22.0001 29.6999C20.0157 29.6999 18.2102 28.9389 16.8436 27.7017L12.7061 35.6812C15.3397 37.4607 18.5148 38.4999 21.9325 38.4999C25.3939 38.4999 28.6031 37.4297 31.2563 35.6083L27.1566 27.7017C25.7899 28.9389 23.9844 29.6999 22.0001 29.6999Z" fill="#171A1F"/>
<path d="M22 27.5C25.0376 27.5 27.5 25.0376 27.5 22C27.5 18.9624 25.0376 16.5 22 16.5C18.9624 16.5 16.5 18.9624 16.5 22C16.5 25.0376 18.9624 27.5 22 27.5Z" fill="#171A1F"/>
</svg>
