<svg width="16" height="16" viewBox="0 0 16 16" fill="none" xmlns="http://www.w3.org/2000/svg">
<path d="M14.2801 5.43998C14.2801 5.43998 14.1601 4.55998 13.7601 4.15998C13.2801 3.63998 12.7201 3.63998 12.4801 3.59998C10.6801 3.47998 8.0001 3.47998 8.0001 3.47998C8.0001 3.47998 5.3201 3.47998 3.5201 3.59998C3.2801 3.63998 2.7201 3.63998 2.2401 4.15998C1.8401 4.55998 1.7201 5.43998 1.7201 5.43998C1.7201 5.43998 1.6001 6.47998 1.6001 7.51998L1.6001 8.47998C1.6001 9.51998 1.7201 10.56 1.7201 10.56C1.7201 10.56 1.8401 11.44 2.2401 11.84C2.7201 12.36 3.3601 12.32 3.6401 12.4C4.6801 12.48 8.0001 12.52 8.0001 12.52C8.0001 12.52 10.6801 12.52 12.4801 12.4C12.7201 12.36 13.2801 12.36 13.7601 11.84C14.1601 11.44 14.2801 10.56 14.2801 10.56C14.2801 10.56 14.4001 9.51998 14.4001 8.47998V7.51998C14.4001 6.47998 14.2801 5.43998 14.2801 5.43998ZM6.6801 9.67998L6.6801 6.07998L10.1201 7.87998L6.6801 9.67998Z" fill="#DEE1E6"/>
</svg>
