<svg width="16" height="16" viewBox="0 0 16 16" fill="none" xmlns="http://www.w3.org/2000/svg">
<path d="M14.4001 7.99995C14.3999 6.77692 14.0493 5.57955 13.3897 4.5496C12.7302 3.51965 11.7893 2.70025 10.6786 2.1884C9.56779 1.67655 8.33362 1.49369 7.12215 1.66146C5.91068 1.82923 4.77266 2.34062 3.84279 3.13507C2.91293 3.92953 2.23017 4.97378 1.87535 6.14421C1.52053 7.31464 1.50851 8.56223 1.8407 9.73928C2.17289 10.9163 2.83538 11.9736 3.74976 12.7858C4.66413 13.598 5.79209 14.1312 7.0001 14.3223L7.0001 9.84995H5.3753V7.99995H7.0001L7.0001 6.58995C7.0001 4.98595 7.9557 4.09995 9.4173 4.09995C9.8973 4.10661 10.3762 4.14832 10.8501 4.22475L10.8501 5.79995L10.0429 5.79995C9.90535 5.78168 9.76545 5.7946 9.63356 5.83775C9.50168 5.8809 9.3812 5.95317 9.28105 6.04921C9.1809 6.14525 9.10364 6.2626 9.05501 6.39256C9.00637 6.52252 8.98761 6.66175 9.0001 6.79995L9.0001 7.99995L10.7753 7.99995L10.4913 9.84995H9.0001L9.0001 14.3223C10.5056 14.0842 11.8767 13.3165 12.8666 12.1575C13.8566 10.9985 14.4003 9.52419 14.4001 7.99995Z" fill="#DEE1E6"/>
</svg>
