<svg width="44" height="44" viewBox="0 0 44 44" fill="none" xmlns="http://www.w3.org/2000/svg">
<path d="M15.4 7.7C15.4 6.4845 14.4155 5.5 13.2 5.5C11.9845 5.5 11 6.4845 11 7.7L11 9.9H15.4V7.7Z" fill="#171A1F"/>
<path d="M20.9 7.7C20.9 6.4845 19.9155 5.5 18.7 5.5C17.4845 5.5 16.5 6.4845 16.5 7.7V9.9H20.9V7.7Z" fill="#171A1F"/>
<path d="M26.4 6.5999C26.4 5.3844 25.4155 4.3999 24.2 4.3999C22.9845 4.3999 22 5.3844 22 6.5999V9.8999H26.4V6.5999Z" fill="#171A1F"/>
<path d="M31.9 7.7C31.9 6.4845 30.9155 5.5 29.7 5.5C28.4845 5.5 27.5 6.4845 27.5 7.7V9.9H31.9V7.7Z" fill="#171A1F"/>
<path d="M22.0002 23.1C23.8227 23.1 25.3002 21.6225 25.3002 19.8C25.3002 17.9775 23.8227 16.5 22.0002 16.5C20.1777 16.5 18.7002 17.9775 18.7002 19.8C18.7002 21.6225 20.1777 23.1 22.0002 23.1Z" fill="#171A1F"/>
<path d="M38.4999 11L5.4999 11C4.8916 11 4.3999 11.4928 4.3999 12.1L4.3999 27.5C4.3999 28.1072 4.8916 28.6 5.4999 28.6H11.0274C11.3167 34.7215 16.3569 39.6 22.5499 39.6C28.7429 39.6 33.7831 34.7215 34.0724 28.6H38.4999C39.1082 28.6 39.5999 28.1072 39.5999 27.5L39.5999 12.1C39.5999 11.4928 39.1082 11 38.4999 11ZM37.3999 26.4H34.0999V16.5C31.0628 16.5 28.5999 18.9629 28.5999 22V25.3C27.2051 25.3 25.8444 25.7081 24.7213 26.4C22.4465 27.9818 21.6897 30.4909 21.6897 30.4909C21.6897 30.4909 21.1353 28.9509 21.6534 26.4L6.5999 26.4L6.5999 13.2L37.3999 13.2L37.3999 26.4Z" fill="#171A1F"/>
</svg>
