<svg width="19" height="18" viewBox="0 0 19 18" fill="none" xmlns="http://www.w3.org/2000/svg">
<path d="M18 15V16C18 17.1 17.1 18 16 18L2 18C1.46957 18 0.960859 17.7893 0.585786 17.4142C0.210714 17.0391 0 16.5304 0 16L0 2C0 1.46957 0.210714 0.960859 0.585786 0.585786C0.960859 0.210714 1.46957 0 2 0L16 0C17.1 0 18 0.9 18 2V3L9 3C8.46957 3 7.96086 3.21071 7.58579 3.58579C7.21071 3.96086 7 4.46957 7 5L7 13C7 13.5304 7.21071 14.0391 7.58579 14.4142C7.96086 14.7893 8.46957 15 9 15L18 15ZM9 13L19 13L19 5L9 5L9 13ZM13 10.5C12.17 10.5 11.5 9.83 11.5 9C11.5 8.17 12.17 7.5 13 7.5C13.83 7.5 14.5 8.17 14.5 9C14.5 9.83 13.83 10.5 13 10.5Z" fill="#171A1F"/>
</svg>
