<svg width="97" height="32" viewBox="0 0 97 32" fill="none" xmlns="http://www.w3.org/2000/svg">
<path d="M50.2177 21.8962C51.3027 20.8745 52.1707 20.0762 53.1937 19.1183C54.0617 19.9166 54.8677 20.6829 55.7047 21.4173C58.6807 24.0355 62.8657 23.8759 65.3147 21.1299C67.7017 18.4158 67.7327 14.2011 65.3147 11.487C62.8347 8.70912 58.6497 8.51754 55.7047 11.1997C50.8687 15.5741 46.1257 20.0123 41.3207 24.4187C36.7017 28.6654 30.1917 28.5057 26.0377 24.0994C21.9767 19.725 22.0077 12.86 26.0997 8.48561C30.1917 4.1112 36.7637 4.01541 41.3827 8.29403C42.1887 9.06035 42.9947 9.82667 43.9867 10.7526C42.9327 11.7425 42.0337 12.5727 41.0107 13.5306C40.1117 12.7004 39.3677 11.9979 38.5927 11.2955C35.5857 8.64526 31.4627 8.74105 28.9517 11.4551C26.4407 14.1692 26.4717 18.5116 28.9517 21.2576C31.4627 23.9717 35.6477 24.0994 38.5927 21.4173C43.3667 17.0748 48.0787 12.7004 52.7907 8.32596C57.4097 4.04734 63.9197 4.14313 68.0737 8.51754C72.1657 12.86 72.1967 19.7888 68.1667 24.1313C64.0127 28.5696 57.5027 28.7292 52.8837 24.4825C52.1087 23.6524 51.2717 22.886 50.2177 21.8962Z" fill="#D221FF"/>
<path d="M5.86133 27.4985V3.07202H10.2943V23.3476H20.3383V27.4985H5.86133Z" fill="black"/>
<path d="M75.9902 27.4985V3.07202H84.8872C86.5922 3.07202 88.1112 3.39132 89.4132 3.99799C90.7462 4.60466 91.7692 5.4987 92.5132 6.64818C93.2572 7.79766 93.6292 9.17065 93.6292 10.7991C93.6292 12.4594 93.2882 13.8324 92.5752 14.9819C91.8932 16.1314 90.8702 16.9935 89.5682 17.5682C88.2352 18.1749 86.6542 18.4623 84.7632 18.4623H80.3922V27.4985H75.9902ZM80.4232 14.5988H84.7942C86.2202 14.5988 87.3052 14.3114 88.0802 13.7047C88.8552 13.098 89.2582 12.1721 89.2582 10.8949C89.2582 9.61767 88.8552 8.65977 88.0492 8.02117C87.2432 7.38257 86.1582 7.03134 84.8252 7.03134H80.4232V14.5988Z" fill="black"/>
</svg>
