<svg width="24" height="24" viewBox="0 0 24 24" fill="none" xmlns="http://www.w3.org/2000/svg">
<path d="M18.0001 11.143V8.57153C18.0001 6.98023 17.368 5.45411 16.2428 4.32889C15.1176 3.20367 13.5914 2.57153 12.0001 2.57153C10.4088 2.57153 8.88272 3.20367 7.7575 4.32889C6.63228 5.45411 6.00014 6.98023 6.00014 8.57153V11.143C6.00014 13.9715 3.42871 14.6572 3.42871 16.2858C3.42871 17.743 6.77157 18.8572 12.0001 18.8572C17.2287 18.8572 20.5716 17.743 20.5716 16.2858C20.5716 14.6572 18.0001 13.9715 18.0001 11.143Z" stroke="#9095A0" stroke-width="2.05714" stroke-miterlimit="10" stroke-linecap="square"/>
<path d="M11.9999 20.5713C11.1333 20.5713 10.319 20.5422 9.55273 20.4856C9.7161 21.0067 10.0416 21.4621 10.4817 21.7854C10.9219 22.1087 11.4537 22.283 11.9999 22.283C12.546 22.283 13.0779 22.1087 13.518 21.7854C13.9582 21.4621 14.2837 21.0067 14.447 20.4856C13.6807 20.5422 12.8664 20.5713 11.9999 20.5713Z" fill="#9095A0"/>
</svg>
