<svg width="34" height="34" viewBox="0 0 34 34" fill="none" xmlns="http://www.w3.org/2000/svg">
<path d="M29.2521 26.8482L24.43 22.0262L28.3851 20.3313C28.7225 20.1868 28.9299 19.8408 28.8968 19.4744C28.8636 19.1081 28.5993 18.8047 28.2414 18.7214L17.1914 16.1714C16.905 16.1068 16.6058 16.1918 16.3992 16.3992C16.1918 16.6066 16.106 16.9058 16.1714 17.1914L18.7214 28.2414C18.8047 28.6001 19.1082 28.8644 19.4745 28.8967C19.5 28.8993 19.5255 28.9001 19.5502 28.9001C19.8876 28.9001 20.1962 28.6995 20.3305 28.385L22.0254 24.4308L26.8474 29.2529C27.1789 29.5852 27.6141 29.751 28.0493 29.751C28.4845 29.751 28.9197 29.5852 29.2512 29.2529C29.9151 28.589 29.9151 27.5129 29.2512 26.8491L29.2521 26.8482Z" fill="#171A1F"/>
<path d="M14.45 27.2L7.65 27.2C6.71245 27.2 5.95 26.4376 5.95 25.5L5.95 7.65C5.95 6.71245 6.71245 5.95 7.65 5.95L25.5 5.95C26.4376 5.95 27.2 6.71245 27.2 7.65L27.2 14.45C27.2 14.9201 27.5808 15.3 28.05 15.3C28.5192 15.3 28.9 14.9201 28.9 14.45L28.9 7.65C28.9 5.7749 27.3751 4.25 25.5 4.25L7.65 4.25C5.7749 4.25 4.25 5.7749 4.25 7.65L4.25 25.5C4.25 27.3751 5.7749 28.9 7.65 28.9L14.45 28.9C14.9192 28.9 15.3 28.5201 15.3 28.05C15.3 27.58 14.9192 27.2 14.45 27.2Z" fill="#171A1F"/>
</svg>
