<svg width="16" height="16" viewBox="0 0 16 16" fill="none" xmlns="http://www.w3.org/2000/svg">
<path d="M14.4001 4.04005C13.9201 4.24005 13.4401 4.40005 12.8801 4.44005C13.4401 4.12005 13.8401 3.60005 14.0401 3.00005C13.5201 3.32005 12.9601 3.52005 12.3601 3.64005C11.8801 3.12005 11.2001 2.80005 10.4801 2.80005C9.04006 2.80005 7.84006 3.96005 7.84006 5.44005C7.84006 5.64005 7.88006 5.84005 7.92006 6.04005C5.72006 5.92005 3.80006 4.88005 2.48006 3.28005C2.24006 3.68005 2.12006 4.12005 2.12006 4.60005C2.12006 5.52005 2.60006 6.32005 3.28006 6.80005C2.84006 6.80005 2.44006 6.68005 2.08006 6.48005V6.52005C2.08006 7.80005 3.00006 8.84005 4.20006 9.08005C3.96006 9.12005 3.76006 9.16005 3.52006 9.16005C3.36006 9.16005 3.20006 9.16005 3.04006 9.12005C3.36006 10.16 4.36006 10.92 5.48006 10.96C4.60006 11.68 3.44006 12.08 2.20006 12.08C2.00006 12.08 1.76006 12.08 1.56006 12.04C2.76006 12.76 4.16006 13.2 5.64006 13.2C10.4801 13.2 13.1201 9.20005 13.1201 5.72005C13.1201 5.60005 13.1201 5.48005 13.1201 5.40005C13.6001 5.00005 14.0401 4.56005 14.4001 4.04005Z" fill="#DEE1E6"/>
</svg>
