<svg width="44" height="44" viewBox="0 0 44 44" fill="none" xmlns="http://www.w3.org/2000/svg">
<path d="M30.7999 4.3999L5.4999 4.3999C4.8916 4.3999 4.3999 4.8927 4.3999 5.4999L4.3999 34.0999C4.3999 34.7071 4.8916 35.1999 5.4999 35.1999H23.0999V27.1083C21.7271 25.4088 20.8999 23.2495 20.8999 20.8999C20.8999 15.4417 25.3406 10.9999 30.7999 10.9999C31.1717 10.9999 31.538 11.0241 31.8999 11.0648V5.4999C31.8999 4.8927 31.4082 4.3999 30.7999 4.3999ZM16.4999 26.3999L8.7999 26.3999L8.7999 24.1999L16.4999 24.1999V26.3999ZM16.4999 20.8999L8.7999 20.8999V18.6999L16.4999 18.6999V20.8999ZM18.6999 15.3999L8.7999 15.3999L8.7999 13.1999L18.6999 13.1999L18.6999 15.3999Z" fill="#171A1F"/>
<path d="M30.7998 30.7999C28.7659 30.7999 26.8739 30.1817 25.2998 29.1257L25.2998 39.1797L30.7998 36.4297L36.2998 39.1797V29.1257C34.7257 30.1817 32.8337 30.7999 30.7998 30.7999Z" fill="#171A1F"/>
<path d="M30.8001 28.6C35.0527 28.6 38.5001 25.1525 38.5001 20.9C38.5001 16.6474 35.0527 13.2 30.8001 13.2C26.5475 13.2 23.1001 16.6474 23.1001 20.9C23.1001 25.1525 26.5475 28.6 30.8001 28.6Z" fill="#171A1F"/>
</svg>
