<svg width="100" height="100" viewBox="0 0 100 100" fill="none" xmlns="http://www.w3.org/2000/svg">
<path d="M77.601 18.27H30.7626C29.8388 18.27 29.0898 19.0177 29.0898 19.94V83.4C29.0898 84.3223 29.8388 85.07 30.7626 85.07H77.601C78.5249 85.07 79.2738 84.3223 79.2738 83.4V19.94C79.2738 19.0177 78.5249 18.27 77.601 18.27Z" fill="white"/>
<path d="M75.9182 88.37C85.1568 88.37 92.6462 80.8931 92.6462 71.67C92.6462 62.4468 85.1568 54.97 75.9182 54.97C66.6796 54.97 59.1902 62.4468 59.1902 71.67C59.1902 80.8931 66.6796 88.37 75.9182 88.37Z" fill="#00BDD6"/>
<path d="M80.1579 66.0324L77.3726 68.7853C76.9589 68.5101 76.3936 68.3724 75.8421 68.3724C74.0357 68.3724 72.6293 69.7489 72.6293 71.5385C72.6293 72.0891 72.7672 72.6397 73.043 73.0527L72.0639 74.0163C71.7883 74.2917 71.7883 74.8423 72.0639 75.2553C72.3398 75.5305 72.905 75.5305 73.3187 75.2553L74.2978 74.2917C75.5526 74.9799 77.083 74.8423 78.1999 73.7409C79.3169 72.6397 79.4547 71.1255 78.7515 69.8867L81.5367 67.1336C81.8125 66.8582 81.8125 66.3076 81.5367 65.8946C81.1232 65.757 80.5577 65.757 80.1441 66.0324H80.1579ZM76.8073 72.6397C76.5315 72.9151 76.1041 73.0527 75.6904 73.0527C74.8493 73.0527 74.1598 72.3645 74.1598 71.5385C74.1598 70.7125 74.863 70.0243 75.6904 70.0243C76.1041 70.0243 76.5315 70.1619 76.8073 70.4373C77.5104 71.1255 77.5104 72.0891 76.8073 72.6397Z" fill="#4069E5"/>
<path d="M44.5982 24.5574H37.6213C37.2076 24.5574 36.78 24.9704 36.78 25.3834V32.2661C36.78 32.6791 37.1937 33.0921 37.6213 33.0921H44.5982C45.0119 33.0921 45.4394 32.6791 45.4394 32.2661V25.3834C45.4394 24.9704 45.0258 24.5574 44.5982 24.5574ZM43.6193 31.4403H38.3244V26.2093H43.6193V31.4403Z" fill="#8353E2"/>
<path d="M49.7564 32.2535H69.8464C70.26 32.2535 70.6876 31.8405 70.6876 31.4275C70.6876 31.0146 70.2739 30.6016 69.8464 30.6016H49.7564C49.3427 30.6016 48.9153 31.0146 48.9153 31.4275C48.9153 31.8405 49.329 32.2535 49.7564 32.2535Z" fill="#00BDD6"/>
<path d="M49.7595 28.0016H60.2251C60.6388 28.0016 61.0663 27.5886 61.0663 27.1756C61.0663 26.7626 60.6526 26.3496 60.2251 26.3496H49.7595C49.3459 26.3496 48.9185 26.7626 48.9185 27.1756C48.9185 27.5886 49.3321 28.0016 49.7595 28.0016Z" fill="#00BDD6"/>
<path d="M49.7564 44.2062H69.8464C70.26 44.2062 70.6876 43.7932 70.6876 43.3802C70.6876 42.9672 70.2739 42.5542 69.8464 42.5542H49.7564C49.3427 42.5542 48.9153 42.9672 48.9153 43.3802C48.9153 43.9308 49.329 44.2062 49.7564 44.2062Z" fill="#00BDD6"/>
<path d="M49.7595 39.9477H60.2251C60.6388 39.9477 61.0663 39.5347 61.0663 39.1217C61.0663 38.7089 60.6526 38.2959 60.2251 38.2959H49.7595C49.3459 38.2959 48.9185 38.7089 48.9185 39.1217C48.9185 39.5347 49.3321 39.9477 49.7595 39.9477Z" fill="#00BDD6"/>
<path d="M43.051 39.3906L39.2868 43.1072L38.1699 41.8684C37.8941 41.593 37.3288 41.593 36.9151 41.8684C36.6393 42.1436 36.6393 42.6942 36.9151 43.1072L38.7351 44.8968C38.8731 45.0344 39.1488 45.1722 39.2868 45.1722C39.5625 45.1722 39.7003 45.0344 39.8384 44.8968L44.1679 40.6294C44.4437 40.3542 44.4437 39.8034 44.1679 39.3906C44.0301 39.1152 43.4647 39.1152 43.051 39.3906Z" fill="#8353E2"/>
<path d="M64.5348 54.515C64.5348 54.102 64.1213 53.689 63.6938 53.689H49.7398C49.3261 53.689 48.8987 54.102 48.8987 54.515C48.8987 54.9279 49.3122 55.3408 49.7398 55.3408H63.6938C64.2453 55.4785 64.5348 55.0655 64.5348 54.515Z" fill="#00BDD6"/>
<path d="M49.7595 51.078H58.5429C58.9566 51.078 59.384 50.665 59.384 50.252C59.384 49.839 58.9703 49.426 58.5429 49.426H49.7595C49.3459 49.426 48.9185 49.839 48.9185 50.252C48.9185 50.8026 49.3321 51.078 49.7595 51.078Z" fill="#00BDD6"/>
<path d="M43.051 50.5156L39.4247 54.2322L38.1699 52.9934C37.8941 52.718 37.3288 52.718 36.9151 52.9934C36.6393 53.2686 36.6393 53.8192 36.9151 54.2322L38.7351 56.0218C38.8731 56.1594 39.1488 56.2972 39.2868 56.2972C39.5625 56.2972 39.7003 56.1594 39.8384 56.0218L44.1679 51.7544C44.4437 51.4792 44.4437 50.9284 44.1679 50.5156C44.0301 50.2402 43.4647 50.2402 43.051 50.5156Z" fill="#8353E2"/>
<path d="M10.7096 66.6599C7.96063 66.6599 5.69116 68.9224 5.69116 71.6699C5.69116 74.4174 7.96063 76.6799 10.7096 76.6799C13.4585 76.6799 15.728 74.4174 15.728 71.6699C15.728 69.0841 13.4585 66.6599 10.7096 66.6599ZM10.7096 74.7405C9.09536 74.7405 7.64099 73.4476 7.64099 71.6699C7.64099 70.0539 8.93554 68.5993 10.7096 68.5993C12.4836 68.5993 13.7781 69.8922 13.7781 71.6699C13.6183 73.4476 12.3238 74.7405 10.7096 74.7405Z" fill="#323842"/>
<path d="M10.7096 68.3091C12.5613 68.3091 14.0552 69.8006 14.0552 71.6491C14.0552 73.4976 12.5613 74.9891 10.7096 74.9891C8.85796 74.9891 7.36401 73.4976 7.36401 71.6491C7.36401 69.8006 8.85796 68.3091 10.7096 68.3091Z" fill="#00BDD6"/>
<path d="M88.454 16.655C90.7685 16.655 92.636 18.5194 92.636 20.83C92.636 23.1406 90.7685 25.005 88.454 25.005C86.1395 25.005 84.272 23.1406 84.272 20.83C84.272 18.5194 86.1395 16.655 88.454 16.655Z" fill="#00BDD6"/>
<path d="M14.4779 21.1191C15.1673 21.1191 15.7327 21.6697 15.7327 22.3581C15.7327 23.0463 15.1673 23.5969 14.4779 23.5969C13.7885 23.5969 13.2231 23.0463 13.2231 22.3581C13.2231 21.6697 13.7885 21.1191 14.4779 21.1191Z" fill="#323842"/>
<path d="M85.0233 30.5942C85.7127 30.5942 86.2781 31.1448 86.2781 31.8332C86.2781 32.5214 85.7127 33.072 85.0233 33.072C84.3338 33.072 83.7686 32.5214 83.7686 31.8332C83.7686 31.1448 84.3338 30.5942 85.0233 30.5942Z" fill="#323842"/>
<path d="M89.4918 49.4187C90.1814 49.4187 90.7466 49.9695 90.7466 50.6577C90.7466 51.3459 90.1814 51.8965 89.4918 51.8965C88.8025 51.8965 88.2371 51.3459 88.2371 50.6577C88.2371 49.9695 88.8025 49.4187 89.4918 49.4187Z" fill="#323842"/>
<path d="M79.0331 10.0042C79.7224 10.0042 80.2879 10.5548 80.2879 11.2431C80.2879 11.9313 79.7224 12.4819 79.0331 12.4819C78.3437 12.4819 77.7783 11.9313 77.7783 11.2431C77.7783 10.5548 78.3437 10.0042 79.0331 10.0042Z" fill="#323842"/>
<path d="M18.8002 46.9592C19.4895 46.9592 20.0549 47.5098 20.0549 48.198C20.0549 48.8864 19.4895 49.437 18.8002 49.437C18.1106 49.437 17.5454 48.8864 17.5454 48.198C17.5454 47.5098 18.1106 46.9592 18.8002 46.9592Z" fill="#323842"/>
<path d="M21.4567 84.7361C22.1462 84.7361 22.7114 85.2867 22.7114 85.9749C22.7114 86.6633 22.1462 87.2139 21.4567 87.2139C20.7673 87.2139 20.2019 86.6633 20.2019 85.9749C20.2019 85.2867 20.7673 84.7361 21.4567 84.7361Z" fill="#323842"/>
<path d="M88.2403 59.7518C85.7308 57.2738 82.656 55.622 79.3191 54.9338V17.6292C79.3191 17.2162 78.9054 16.8032 78.478 16.8032H74.1485V11.5723C74.1485 11.1593 73.7348 10.7463 73.3072 10.7463H23.6545C23.2408 10.7463 22.8132 11.1593 22.8132 11.5723V79.5742C22.8132 79.987 23.2269 80.4 23.6545 80.4H28.9492V84.6673C28.9492 85.0803 29.3629 85.4933 29.7903 85.4933H65.5029C72.342 90.5865 81.9664 90.0359 88.2403 83.9791C95.0795 77.234 95.0795 66.3591 88.2403 59.7518ZM28.8251 17.6292V78.7482H24.4956V12.3982H72.48V16.6656H29.6525C29.2388 16.6656 28.8114 17.0784 28.8114 17.6292H28.8251ZM30.6314 83.8414V18.455H77.7748V54.6584C72.7557 54.1078 67.5988 55.8974 63.8208 59.614H63.6827V59.7518C62.1523 61.266 60.8975 63.1931 59.9184 65.2579C59.0774 67.3227 58.6637 69.5253 58.6637 71.8655C58.6637 76.5456 60.4701 80.813 63.6827 83.9791H30.6314V83.8414ZM89.3572 72.6913H91.5911C91.4531 74.2055 91.1774 75.582 90.7498 76.9586L89.6331 76.5456C89.2194 76.408 88.654 76.5456 88.5161 76.9586C88.3783 77.3716 88.5161 77.9222 88.9298 78.0598L90.0467 78.4728C89.3435 79.8494 88.5161 80.9506 87.5372 82.052L86.0066 80.5376C85.7309 80.2624 85.1655 80.2624 84.7518 80.5376C84.476 80.813 84.476 81.3636 84.7518 81.7766L86.2824 83.2908C85.1655 84.2543 83.9108 85.0803 82.656 85.6309L82.2423 84.5297C82.1045 84.1167 81.5391 83.8414 81.1254 84.1167C80.7119 84.2543 80.4223 84.805 80.7119 85.2179L81.1254 86.3191C79.7328 86.7321 78.3402 87.1451 76.7958 87.1451V84.9427C76.7958 84.5297 76.3821 84.1167 75.9547 84.1167C75.5272 84.1167 75.1137 84.5297 75.1137 84.9427V87.2827C73.583 87.1451 72.1904 86.8699 70.784 86.4569L71.1976 85.3555C71.3355 84.9427 71.1976 84.392 70.784 84.2543C70.3703 84.1167 69.805 84.2543 69.667 84.6673L69.2533 85.7685C67.8607 85.0803 66.744 84.2543 65.627 83.2908L67.1575 81.7766C67.4333 81.5012 67.4333 80.9506 67.1575 80.5376C66.8818 80.2624 66.3164 80.2624 65.9027 80.5376L64.3723 82.052C63.3932 80.9506 62.566 79.7118 62.0006 78.4728L63.1175 78.0598C63.5312 77.9222 63.8208 77.3716 63.5312 76.9586C63.3932 76.5456 62.8279 76.2704 62.4143 76.5456L61.2973 76.9586C60.8837 75.582 60.4563 74.2055 60.4563 72.6913H62.6901C63.1036 72.6913 63.5312 72.2783 63.5312 71.8655C63.5312 71.4525 63.1175 71.0395 62.6901 71.0395H60.4563C60.5941 69.5253 60.8699 68.1487 61.2973 66.7721L62.4143 67.1851C62.8279 67.3227 63.3932 67.1851 63.5312 66.7721C63.669 66.3591 63.5312 65.8085 63.1175 65.6709L62.0006 65.2579C62.7038 63.8813 63.5312 62.7801 64.5101 61.679L66.0407 63.1931C66.3164 63.4684 66.8818 63.4684 67.2955 63.1931C67.5712 62.9178 67.5712 62.3672 67.2955 61.9542L65.7649 60.44C66.8818 59.4764 68.1366 58.6504 69.3913 58.0998L69.805 59.201C69.9429 59.614 70.5081 59.8894 70.9218 59.614C71.3355 59.4764 71.625 58.9258 71.3355 58.5128L70.9218 57.4116C72.3146 56.9986 73.7072 56.5856 75.2515 56.5856V58.7882C75.2515 59.201 75.6652 59.614 76.0926 59.614C76.52 59.614 76.9337 59.201 76.9337 58.7882V56.5856C78.4643 56.7232 79.8569 56.9986 81.2634 57.4116L80.8497 58.5128C80.7119 58.9258 80.8497 59.4764 81.2634 59.614C81.6771 59.7518 82.2423 59.614 82.3801 59.201L82.7938 58.0998C84.1866 58.7882 85.3034 59.614 86.4203 60.5776L84.8897 62.0918C84.614 62.3672 84.614 62.9178 84.8897 63.3307C85.1655 63.606 85.7308 63.606 86.1444 63.3307L87.675 61.8166C88.654 62.9178 89.4951 64.1567 90.0467 65.3955L88.9298 65.8085C88.5161 65.9461 88.2266 66.4969 88.5161 66.9097C88.654 67.3227 89.2194 67.5981 89.6331 67.3227L90.7498 66.9097C91.1635 68.2863 91.5911 69.6629 91.5911 71.1771H89.3572C88.9435 71.1771 88.5161 71.5901 88.5161 72.0031C88.5161 72.2783 88.9298 72.6913 89.3572 72.6913Z" fill="#323842"/>
<path d="M88.0903 26.2146C91.0135 26.2146 93.3852 23.8744 93.3852 21.1213C93.3852 18.3681 91.0135 15.8904 88.0903 15.8904C85.1671 15.8904 82.7954 18.2305 82.7954 21.1213C82.7954 24.012 85.1671 26.2146 88.0903 26.2146ZM88.0903 17.6799C90.0483 17.6799 91.5788 19.1941 91.5788 21.1213C91.5788 23.0485 90.0483 24.5626 88.0903 24.5626C86.1323 24.5626 84.6019 23.0485 84.6019 21.1213C84.6019 19.1941 86.1323 17.6799 88.0903 17.6799Z" fill="#323842"/>
</svg>
