<svg width="100" height="100" viewBox="0 0 100 100" fill="none" xmlns="http://www.w3.org/2000/svg">
<path d="M50.0993 54.6323C46.5459 54.6323 43.5918 57.557 43.5918 61.0667C43.5918 64.5762 46.5459 67.5008 50.0993 67.5008C53.6527 67.5008 56.6066 64.5762 56.6066 61.0667C56.6066 57.557 53.6527 54.6323 50.0993 54.6323ZM50.0993 65.5999C47.5841 65.5999 45.5075 63.5526 45.5075 61.0667C45.5075 58.5807 47.5841 56.5335 50.0993 56.5335C52.6145 56.5335 54.6909 58.5807 54.6909 61.0667C54.6909 63.5526 52.6145 65.5999 50.0993 65.5999Z" fill="#323842"/>
<path d="M82.5925 17.7002C85.83 17.7002 88.4418 20.3121 88.4418 23.5495C88.4418 26.7868 85.83 29.3989 82.5925 29.3989C79.3552 29.3989 76.7432 26.7868 76.7432 23.5495C76.7432 20.3121 79.3552 17.7002 82.5925 17.7002Z" fill="#00BDD6"/>
<path d="M82.4468 31.0069C86.5852 31.0069 89.8462 27.7897 89.8462 23.6952C89.8462 19.6007 86.5852 16.3835 82.4468 16.3835C78.3084 16.3835 75.0474 19.6007 75.0474 23.6952C75.0474 27.7897 78.3084 31.0069 82.4468 31.0069ZM82.4468 18.2846C85.547 18.2846 88.0622 20.7705 88.0622 23.8415C88.0622 26.9124 85.547 29.3984 82.4468 29.3984C79.3466 29.3984 76.8314 26.9124 76.8314 23.8415C76.8314 20.7705 79.3466 18.2846 82.4468 18.2846Z" fill="#323842"/>
<path d="M18.6307 24.9993C21.2045 24.9993 23.2809 27.0759 23.2809 29.6495C23.2809 32.2232 21.2045 34.2998 18.6307 34.2998C16.057 34.2998 13.9805 32.2232 13.9805 29.6495C13.9805 27.0759 16.057 24.9993 18.6307 24.9993Z" fill="#00BDD6"/>
<path d="M18.7844 35.6768C21.8844 35.6768 24.3998 33.1909 24.3998 30.1199C24.3998 27.049 21.8844 24.563 18.7844 24.563C15.6842 24.563 13.1689 27.049 13.1689 30.1199C13.1689 33.1909 15.6842 35.6768 18.7844 35.6768ZM18.7844 26.4641C20.8609 26.4641 22.4841 28.0727 22.4841 30.1199C22.4841 32.1672 20.8609 33.7757 18.7844 33.7757C16.7077 33.7757 15.0846 32.1672 15.0846 30.1199C15.0846 28.0727 16.7077 26.4641 18.7844 26.4641Z" fill="#323842"/>
<path d="M66.7769 15.963C67.508 15.963 68.1075 15.3781 68.1075 14.6469C68.1075 13.9157 67.508 13.3308 66.7769 13.3308C66.0457 13.3308 65.446 13.9157 65.446 14.6469C65.446 15.3781 66.0457 15.963 66.7769 15.963Z" fill="#323842"/>
<path d="M86.5733 48.5063C85.842 48.5063 85.2424 49.0912 85.2424 49.8225C85.2424 50.5536 85.842 51.1384 86.5733 51.1384C87.3044 51.1384 87.9039 50.5536 87.9039 49.8225C87.9039 49.0912 87.3044 48.5063 86.5733 48.5063Z" fill="#323842"/>
<path d="M70.9041 35.519C71.6352 35.519 72.2347 34.9341 72.2347 34.2028C72.2347 33.4717 71.6352 32.8867 70.9041 32.8867C70.1728 32.8867 69.5732 33.4717 69.5732 34.2028C69.5732 34.9341 70.1728 35.519 70.9041 35.519Z" fill="#323842"/>
<path d="M32.0967 18.2948C32.8278 18.2948 33.4273 17.7098 33.4273 16.9787C33.4273 16.2475 32.8278 15.6626 32.0967 15.6626C31.3654 15.6626 30.7659 16.2475 30.7659 16.9787C30.7659 17.7098 31.3654 18.2948 32.0967 18.2948Z" fill="#323842"/>
<path d="M14.2239 49.8225C14.2239 50.5536 14.8234 51.1384 15.5546 51.1384C16.2858 51.1384 16.8854 50.5536 16.8854 49.8225C16.8854 49.0912 16.2858 48.5063 15.5546 48.5063C14.8234 48.5063 14.2239 49.0912 14.2239 49.8225Z" fill="#323842"/>
<path d="M49.7488 22.0698C56.6282 22.0698 62.1786 27.2938 62.1786 33.7685C62.1786 40.2433 56.6282 45.4672 49.7488 45.4672C42.8694 45.4672 37.3188 40.2433 37.3188 33.7685C37.3188 27.2938 42.8694 22.0698 49.7488 22.0698Z" fill="white"/>
<path d="M27.1366 69.5414V55.6492C21.8722 56.2342 19.0937 65.1543 18.3625 69.5414H27.1366Z" fill="#8353E2"/>
<path d="M72.3611 69.5414V55.6492C77.6254 56.2342 81.1351 64.7537 81.1351 69.5414H72.3611Z" fill="#8353E2"/>
<path d="M89.232 77.5442H11.7281C9.70905 77.5442 8.07227 79.181 8.07227 81.2C8.07227 83.2191 9.70905 84.8559 11.7281 84.8559H89.232C91.2511 84.8559 92.8879 83.2191 92.8879 81.2C92.8879 79.181 91.2511 77.5442 89.232 77.5442Z" fill="#00BDD6"/>
<path d="M15.4475 73.173C15.4475 71.5577 16.757 70.2483 18.3722 70.2483H27.1462V76.0976H18.3722C16.757 76.0976 15.4475 74.7882 15.4475 73.173Z" fill="#4069E5"/>
<path d="M85.5195 73.173C85.5195 71.5577 84.2102 70.2483 82.5948 70.2483H73.8208V76.0976H82.5948C84.21 76.0976 85.5195 74.7882 85.5195 73.173Z" fill="#4069E5"/>
<path fill-rule="evenodd" clip-rule="evenodd" d="M85.1514 75.8392H88.3832C91.191 75.8392 93.5599 78.0327 93.4137 80.8113C93.4137 83.5897 91.191 85.7832 88.3832 85.7832H11.6105C8.80283 85.7832 6.58008 83.5897 6.58008 80.8113C6.58008 78.0327 8.80283 75.8392 11.6105 75.8392H14.8715C14.272 75.1081 13.9795 74.0845 13.9795 73.0608C13.9795 70.8673 15.6027 68.9663 17.6792 68.5276C17.6792 62.6783 20.7939 57.1213 25.9706 54.1967V51.1257C25.9706 48.0549 28.486 45.5689 31.586 45.5689H42.8314C38.693 43.2291 35.8852 38.8422 35.8852 33.724C35.8852 26.1198 42.1003 19.978 49.7922 19.978C57.484 19.978 63.6989 26.1198 63.6989 33.724C63.6989 38.6959 60.8913 43.2291 56.7529 45.5689H68.2908C71.3908 45.5689 73.9061 48.0549 73.9061 51.1257V54.1967C75.8363 55.2204 78.3515 57.1213 80.121 60.3384C81.9051 63.4094 82.3438 66.3341 82.3438 68.5276C84.4203 68.9663 86.0435 70.8673 86.0435 73.0608C86.0435 74.0845 85.7364 75.1081 85.1514 75.8392ZM74.0815 56.3994V68.5276H80.589C80.589 66.6265 80.1356 63.9944 78.6586 61.3621C77.332 59.0295 75.6999 57.4234 74.0815 56.3994ZM81.4664 70.2824H74.0669V75.8392H81.4664C83.0896 75.8392 84.274 74.5232 84.274 73.0608C84.274 71.5986 83.0896 70.2824 81.4664 70.2824ZM31.6152 47.4699C29.5387 47.4699 27.9155 49.0784 27.9155 51.1257V75.8392H72.2974V51.1257C72.2974 49.0784 70.6743 47.4699 68.5979 47.4699H31.6152ZM26.1461 68.5276V56.3902C22.154 59.1686 19.6388 63.5557 19.6388 68.5276H26.1461ZM26.1461 70.2824H18.7467C17.1235 70.2824 15.939 71.5986 15.939 73.0608C15.939 74.5232 17.1235 75.8392 18.7467 75.8392H26.1461V70.2824ZM11.786 84.0284H88.4124C90.1965 84.0284 91.8197 82.566 91.8197 80.8113C91.8197 79.0565 90.3281 77.594 88.5587 77.594H11.786C10.0019 77.594 8.52499 79.0565 8.52499 80.8113C8.52499 82.566 10.0166 84.0284 11.786 84.0284ZM60.7158 33.7236C60.7158 39.7809 55.8055 44.6912 49.7482 44.6912C43.6912 44.6912 38.7808 39.7809 38.7808 33.7236C38.7808 27.6664 43.6912 22.7561 49.7482 22.7561C55.8055 22.7561 60.7158 27.6664 60.7158 33.7236Z" fill="#323842"/>
</svg>
