<svg width="16" height="16" viewBox="0 0 16 16" fill="none" xmlns="http://www.w3.org/2000/svg">
<path d="M8 3.08C9.6 3.08 9.792 3.086 10.4244 3.1148C10.805 3.11929 11.1819 3.18925 11.5388 3.3216C11.7993 3.41777 12.035 3.57113 12.2284 3.7704C12.4277 3.96383 12.581 4.19948 12.6772 4.46C12.8096 4.81685 12.8795 5.19382 12.884 5.5744C12.9128 6.208 12.92 6.4 12.92 8C12.92 9.6 12.914 9.792 12.8852 10.4244C12.8807 10.805 12.8108 11.1819 12.6784 11.5388C12.5785 11.7974 12.4256 12.0323 12.2296 12.2284C12.0335 12.4244 11.7986 12.5773 11.54 12.6772C11.1831 12.8096 10.8062 12.8795 10.4256 12.884C9.7932 12.9128 9.6032 12.9188 8.0012 12.9188C6.3992 12.9188 6.2092 12.9128 5.5768 12.884C5.19622 12.8795 4.81925 12.8096 4.4624 12.6772C4.20188 12.581 3.96623 12.4277 3.7728 12.2284C3.57353 12.035 3.42017 11.7993 3.324 11.5388C3.19165 11.1819 3.12169 10.805 3.1172 10.4244C3.0872 9.792 3.08 9.602 3.08 8C3.08 6.398 3.086 6.208 3.1148 5.5756C3.11929 5.19502 3.18925 4.81805 3.3216 4.4612C3.41812 4.20056 3.5719 3.96491 3.7716 3.7716C3.96503 3.57233 4.20068 3.41897 4.4612 3.3228C4.81805 3.19045 5.19502 3.12049 5.5756 3.116C6.208 3.0872 6.4 3.08 8 3.08ZM8 2C6.3704 2 6.166 2.0068 5.5264 2.036C5.02849 2.04655 4.53595 2.14122 4.0696 2.316C3.66951 2.46658 3.30698 2.70244 3.0072 3.0072C2.702 3.30686 2.46573 3.6694 2.3148 4.0696C2.14002 4.53595 2.04535 5.02849 2.0348 5.5264C2.0068 6.166 2 6.3704 2 8C2 9.6296 2.0068 9.834 2.036 10.4736C2.04655 10.9715 2.14122 11.4641 2.316 11.9304C2.46693 12.3306 2.7032 12.6931 3.0084 12.9928C3.30806 13.298 3.6706 13.5343 4.0708 13.6852C4.53715 13.86 5.02969 13.9547 5.5276 13.9652C6.1676 13.9944 6.3716 14.0012 8.0012 14.0012C9.6308 14.0012 9.8352 13.9944 10.4748 13.9652C10.9727 13.9547 11.4653 13.86 11.9316 13.6852C12.33 13.5308 12.6919 13.295 12.994 12.9928C13.2962 12.6907 13.532 12.3288 13.6864 11.9304C13.8612 11.4641 13.9559 10.9715 13.9664 10.4736C13.9956 9.8336 14.0024 9.6296 14.0024 8C14.0024 6.3704 13.9956 6.166 13.9664 5.5264C13.9559 5.02849 13.8612 4.53595 13.6864 4.0696C13.5355 3.6694 13.2992 3.30686 12.994 3.0072C12.6943 2.702 12.3318 2.46573 11.9316 2.3148C11.4653 2.14002 10.9727 2.04535 10.4748 2.0348C9.834 2.0068 9.6296 2 8 2Z" fill="#DEE1E6"/>
<path d="M7.99992 4.92004C7.39076 4.92004 6.79527 5.10068 6.28877 5.43912C5.78226 5.77755 5.38749 6.25858 5.15437 6.82138C4.92126 7.38418 4.86026 8.00346 4.9791 8.60092C5.09795 9.19838 5.39129 9.74719 5.82203 10.1779C6.25278 10.6087 6.80158 10.902 7.39905 11.0209C7.99651 11.1397 8.61579 11.0787 9.17859 10.8456C9.74138 10.6125 10.2224 10.2177 10.5608 9.7112C10.8993 9.2047 11.0799 8.60921 11.0799 8.00004C11.0799 7.18318 10.7554 6.39977 10.1778 5.82215C9.6002 5.24454 8.81679 4.92004 7.99992 4.92004ZM7.99992 10C7.60436 10 7.21768 9.88275 6.88878 9.66298C6.55988 9.44322 6.30354 9.13086 6.15216 8.76541C6.00079 8.39996 5.96118 7.99783 6.03835 7.60986C6.11552 7.2219 6.306 6.86554 6.58571 6.58583C6.86541 6.30613 7.22178 6.11564 7.60974 6.03847C7.9977 5.9613 8.39984 6.00091 8.76529 6.15228C9.13074 6.30366 9.4431 6.56001 9.66286 6.8889C9.88263 7.2178 9.99992 7.60448 9.99992 8.00004C9.99992 8.53048 9.78921 9.03918 9.41414 9.41426C9.03906 9.78933 8.53036 10 7.99992 10Z" fill="#DEE1E6"/>
<path d="M11.2029 5.51715C11.6006 5.51715 11.9229 5.19479 11.9229 4.79715C11.9229 4.3995 11.6006 4.07715 11.2029 4.07715C10.8053 4.07715 10.4829 4.3995 10.4829 4.79715C10.4829 5.19479 10.8053 5.51715 11.2029 5.51715Z" fill="#DEE1E6"/>
</svg>
